HIERARCHY
ROOT Hips
{
	OFFSET 0.00000 0.00000 0.00000
	CHANNELS 6 Xposition Yposition Zposition Zrotation Yrotation Xrotation 
	JOINT LHipJoint
	{
		OFFSET 0 0 0
		CHANNELS 3 Zrotation Yrotation Xrotation
		JOINT LeftHip
		{
			OFFSET 1.82298 -1.58346 0.87084
			CHANNELS 3 Zrotation Yrotation Xrotation
			JOINT LeftKnee
			{
				OFFSET 2.43790 -6.69809 0.00000
				CHANNELS 3 Zrotation Yrotation Xrotation
				JOINT LeftAnkle
				{
					OFFSET 2.59288 -7.12389 0.00000
					CHANNELS 3 Zrotation Yrotation Xrotation
					JOINT LeftToe
					{
						OFFSET 0.14552 -0.39981 2.13160
						CHANNELS 3 Zrotation Yrotation Xrotation
						End Site
						{
							OFFSET 0.00000 -0.00000 1.09427
						}
					}
				}
			}
		}
	}
	JOINT RHipJoint
	{
		OFFSET 0 0 0
		CHANNELS 3 Zrotation Yrotation Xrotation
		JOINT RightHip
		{
			OFFSET -1.77229 -1.58346 0.87084
			CHANNELS 3 Zrotation Yrotation Xrotation
			JOINT RightKnee
			{
				OFFSET -2.50703 -6.88801 0.00000
				CHANNELS 3 Zrotation Yrotation Xrotation
				JOINT RightAnkle
				{
					OFFSET -2.61620 -7.18796 0.00000
					CHANNELS 3 Zrotation Yrotation Xrotation
					JOINT RightToe
					{
						OFFSET -0.15190 -0.41735 2.15974
						CHANNELS 3 Zrotation Yrotation Xrotation
						End Site
						{
							OFFSET -0.00000 -0.00000 1.10919
						}
					}
				}
			}
		}
	}
	JOINT lowerback
	{
		OFFSET 0 0 0
		CHANNELS 3 Zrotation Yrotation Xrotation
		JOINT Chest
		{
			OFFSET -0.03602 2.12423 -0.30249
			CHANNELS 3 Zrotation Yrotation Xrotation
			JOINT Chest2
			{
				OFFSET 0.02717 2.10043 0.12912
				CHANNELS 3 Zrotation Yrotation Xrotation
				JOINT lowerneck
				{
					OFFSET 0 0 0
					CHANNELS 3 Zrotation Yrotation Xrotation
					JOINT Neck
					{
						OFFSET -0.06371 1.88656 0.11602
						CHANNELS 3 Zrotation Yrotation Xrotation
						JOINT Head
						{
							OFFSET 0.08208 1.87759 -0.11505
							CHANNELS 3 Zrotation Yrotation Xrotation
							End Site
							{
								OFFSET 0.03382 1.93090 -0.05483
							}
						}
					}
				}
				JOINT LeftCollar
				{
					OFFSET 0 0 0
					CHANNELS 3 Zrotation Yrotation Xrotation
					JOINT LeftShoulder
					{
						OFFSET 3.30903 1.40357 0.20156
CHANNELS 3 Zrotation Xrotation Yrotation
						JOINT LeftElbow
						{
OFFSET 0 -5.433010 0.000000
CHANNELS 3 Zrotation Xrotation Yrotation
							JOINT LeftWrist
							{
OFFSET 0 -3.159360 0.000000
CHANNELS 3 Zrotation Xrotation Yrotation
								JOINT lhand
								{
									OFFSET 0 0 0
CHANNELS 3 Zrotation Xrotation Yrotation
									JOINT LFingers
									{
OFFSET 0 -0.712830 0.000000
CHANNELS 3 Zrotation Xrotation Yrotation
										End Site
										{
OFFSET 0 -0.574700 0.000000
										}
									}
								}
								JOINT LThumb
								{
OFFSET 0 0.000000 0.000000
CHANNELS 3 Zrotation Xrotation Yrotation
									End Site
									{
OFFSET 0 -0.583470 0.583470
									}
								}
							}
						}
					}
				}
				JOINT RightCollar
				{
					OFFSET 0 0 0
					CHANNELS 3 Zrotation Yrotation Xrotation
					JOINT RightShoulder
					{
						OFFSET -3.12947 1.60037 -0.00464
CHANNELS 3 Zrotation Xrotation Yrotation
						JOINT RightElbow
						{
OFFSET 0 -5.341940 0.000000
CHANNELS 3 Zrotation Xrotation Yrotation
							JOINT RightWrist
							{
OFFSET 0 -3.193510 0.000000
CHANNELS 3 Zrotation Xrotation Yrotation
								JOINT rhand
								{
									OFFSET 0 0 0
CHANNELS 3 Zrotation Xrotation Yrotation
									JOINT RFingers
									{
OFFSET 0 -0.743860 0.000000
CHANNELS 3 Zrotation Xrotation Yrotation
										End Site
										{
OFFSET 0 -0.599720 0.000000
										}
									}
								}
								JOINT RThumb
								{
OFFSET 0 0.000000 0.000000
CHANNELS 3 Zrotation Xrotation Yrotation
									End Site
									{
OFFSET 0 -0.608880 0.608880
									}
								}
							}
						}
					}
				}
			}
		}
	}
}
MOTION
Frames: 11
Frame Time: 0.008333333333333333
6.744789 13.766970 -0.708493 -186.336117 -34.456233 537.605008 0.000000 0.000000 0.000000 -11.245919 8.389916 5.264969 8.073696 16.173054 52.827534 2.497665 22.933163 -44.636428 0.008887 -0.571781 -1.571334 0.000000 0.000000 0.000000 -4.705470 -1.350720 -55.936277 -10.173470 -17.505966 60.066154 0.349521 10.673863 6.447505 -5.470845 13.895079 -42.818966 -11.697185 2.522878 18.588051 0.745062 0.746010 0.714647 7.318357 0.848108 -9.882979 -13.847793 -12.944791 1.034569 11.033811 -17.816078 2.932568 4.743458 -8.933178 2.925891 0.000000 0.000000 0.000000 7.361790 40.034225 -49.788622 118.162630 -56.779923 84.125885 33.181148 -46.273497 -45.152548 0.000000 0.000000 0.000000 -7.125000 0.000000 0.000000 -14.919390 79.884315 12.044672 0.000000 0.000000 0.000000 -76.309805 -53.845603 -27.308568 -10.106112 -16.904390 -1.506497 -23.744162 55.928738 46.304567 0.000000 0.000000 0.000000 7.125000 0.000000 0.000000 33.092455 76.945245 -25.262842
7.235728 13.955957 -1.334484 -181.680699 -43.358583 540.009232 0.000000 0.000000 0.000000 -0.953623 2.241836 0.509527 6.880804 15.230654 48.422049 1.907692 17.873216 -37.510149 1.123451 -6.731537 -18.922846 0.000000 0.000000 0.000000 0.414490 -6.034239 -58.707520 -10.762352 -17.816789 62.007480 0.097793 5.688478 0.552423 -6.035306 14.462371 -45.123092 -3.913324 1.937032 19.185986 0.705346 1.638053 0.616026 2.562021 0.928135 -10.253606 -4.072889 -0.049639 -5.509974 0.412398 0.213525 6.434699 0.853768 0.004939 3.031594 0.000000 0.000000 0.000000 13.762111 25.689900 -57.743611 117.449243 -56.950398 83.528146 23.271014 -57.701971 -13.880550 0.000000 0.000000 0.000000 -7.125000 0.000000 0.000000 -3.882519 44.993376 0.016632 0.000000 0.000000 0.000000 -67.132713 -40.526220 -5.063387 -41.819484 -49.049634 -19.823046 -16.367827 10.761890 43.035421 0.000000 0.000000 0.000000 7.125000 0.000000 0.000000 33.488210 71.726359 -22.013596
8.306220 14.548004 -2.181784 -183.075880 -64.946301 545.939985 0.000000 0.000000 0.000000 6.667263 -6.389490 -18.424543 7.331601 15.604774 50.117350 0.926823 6.873477 -21.924282 0.940438 -6.174998 -17.293589 0.000000 0.000000 0.000000 -5.972991 8.397945 -49.403001 -10.839051 -17.855426 62.257678 0.593564 -13.733431 -7.812875 -1.232015 -7.037728 19.827600 -1.742937 4.205934 21.674940 0.089573 4.952605 1.196648 -0.414504 2.336301 -10.973968 2.972181 9.828629 -3.347682 -6.033877 13.311433 4.962726 -1.931752 6.507992 2.846777 0.000000 0.000000 0.000000 11.731034 -9.158920 -59.903725 135.940498 -50.299085 98.487181 38.073888 -18.872847 -21.522281 0.000000 0.000000 0.000000 -7.125000 0.000000 0.000000 10.406978 56.287055 -2.902259 0.000000 0.000000 0.000000 -54.009406 -23.891267 10.618090 -114.555223 -57.591814 -81.093186 -13.356880 -32.498876 41.756621 0.000000 0.000000 0.000000 7.125000 0.000000 0.000000 34.349668 69.718546 -21.157948
8.798824 14.745348 -3.667234 -193.703324 -100.583002 557.744005 0.000000 0.000000 0.000000 10.094155 -2.345937 -52.138327 11.898069 18.344568 65.662373 0.110373 -5.690087 -6.659092 0.001490 -0.040098 -0.110111 0.000000 0.000000 0.000000 1.784368 10.007101 -36.219342 -11.811454 -18.309778 65.389966 -0.365910 -14.776225 -24.487122 -5.800433 -14.231204 44.173781 2.855167 2.984476 20.708824 1.777524 4.659480 1.334778 -1.002987 2.064041 -10.057356 5.130772 10.599014 -2.481316 -7.360496 14.375512 5.228646 -2.698685 7.061975 3.153287 0.000000 0.000000 0.000000 -10.387259 -41.221087 -83.574860 137.741273 -49.351629 99.863027 37.268694 -16.030122 -23.469180 0.000000 0.000000 0.000000 -7.125000 0.000000 0.000000 9.361669 58.351562 -3.081938 0.000000 0.000000 0.000000 -35.163863 -26.579734 20.757950 -142.518104 -46.501919 -103.410251 -15.258980 -42.457028 41.286707 0.000000 0.000000 0.000000 7.125000 0.000000 0.000000 31.421398 69.966974 -19.396018
8.483917 14.571418 -4.660635 -196.116139 -123.904085 554.775905 0.000000 0.000000 0.000000 15.023138 -0.309314 -59.921019 14.840858 19.348848 74.756483 0.048866 2.333462 3.780296 0.002363 -0.166444 -0.457350 0.000000 0.000000 0.000000 13.522733 -6.058816 -28.345947 -12.052583 -18.412544 66.155205 -0.492970 -18.683092 -30.103481 -6.416802 -14.820243 46.632030 4.427698 5.921041 19.632950 6.299371 9.241074 1.672855 1.863310 4.288658 -9.502827 1.296181 8.851750 -3.172253 -7.874286 12.335410 6.514940 -2.286262 5.900644 3.325259 0.000000 0.000000 0.000000 -34.367225 -44.964679 -114.755235 139.319012 -48.466310 101.051926 43.310358 -6.389861 -28.719247 0.000000 0.000000 0.000000 -7.125000 0.000000 0.000000 17.784437 66.144792 -9.203163 0.000000 0.000000 0.000000 -4.848715 -34.562801 53.056037 -136.263897 -50.091577 -98.723393 -28.285857 -32.100067 38.702313 0.000000 0.000000 0.000000 7.125000 0.000000 0.000000 10.786797 72.028234 -6.936282
7.993269 14.161529 -5.085507 -188.579070 -134.651409 548.625147 0.000000 0.000000 0.000000 9.761784 -0.452790 -57.050491 11.396264 18.123491 64.061714 -0.050558 -4.769385 -1.033367 0.629876 -5.071201 -14.113203 0.000000 0.000000 0.000000 11.414018 -18.876222 -32.022332 -14.448899 -19.244143 73.570522 -1.859372 -15.986345 -35.629552 -5.776097 -14.207726 44.076361 1.057249 11.070661 16.748757 4.344716 15.096832 2.051040 0.493004 7.292921 -7.886555 -2.168642 4.885884 -5.668588 -6.661437 7.266221 6.910285 -1.461925 3.279776 3.435611 0.000000 0.000000 0.000000 -37.442127 -49.464112 -125.731806 145.247281 -44.634740 105.360691 35.028971 -17.759582 -29.857874 0.000000 0.000000 0.000000 -7.125000 0.000000 0.000000 5.302806 64.939325 -2.557789 0.000000 0.000000 0.000000 15.327648 -54.639988 80.701961 -33.248409 -43.387453 -13.638173 -26.927938 -36.164649 56.503041 0.000000 0.000000 0.000000 7.125000 0.000000 0.000000 87.966018 81.772630 -79.640378
7.748403 13.843097 -5.030477 -189.780214 -135.410786 548.854167 0.000000 0.000000 0.000000 8.981864 5.550283 -59.206518 12.010825 18.395121 66.023097 -0.102532 -8.827357 -3.993663 0.260984 -3.286634 -9.077899 0.000000 0.000000 0.000000 9.918377 -16.572339 -27.908062 -14.885752 -19.360953 74.892272 -2.949603 -11.929641 -38.264007 -4.352190 -12.614214 37.941850 0.917919 10.860370 15.940327 1.714704 14.632708 1.057794 -1.937118 7.048940 -7.826573 -1.031525 6.183940 -5.934638 -4.304250 8.764333 7.825234 -0.786328 4.116928 3.765560 0.000000 0.000000 0.000000 -12.021075 -43.682628 -100.386408 145.192827 -44.673481 105.322237 9.704243 -32.004519 -29.304038 0.000000 0.000000 0.000000 -7.125000 0.000000 0.000000 -23.630738 58.046823 7.790031 0.000000 0.000000 0.000000 10.081017 -61.152815 98.138368 -47.895365 -52.046542 -24.521285 -18.421609 -38.759925 54.746950 0.000000 0.000000 0.000000 7.125000 0.000000 0.000000 72.913709 78.591014 -61.503425
7.859925 13.785754 -4.582597 -192.109160 -122.174634 550.300022 0.000000 0.000000 0.000000 8.501384 20.469046 -56.167999 13.213462 18.857856 69.787167 0.005842 -11.668735 -8.267313 0.053841 -1.497967 -4.120202 0.000000 0.000000 0.000000 5.926788 -13.139385 -29.535778 -15.016046 -19.393713 75.285030 -3.477290 -4.814255 -37.144933 -1.366098 -7.394311 20.890369 1.313428 8.445584 16.244537 -1.243561 11.379189 -2.066218 -4.894193 5.267735 -10.766489 3.155106 9.989942 -5.494521 -3.341382 13.446696 8.853039 -0.875379 6.583635 4.400994 0.000000 0.000000 0.000000 18.626530 -1.924410 -48.398578 136.464112 -50.009065 98.883153 -21.694926 -79.497893 -39.194706 0.000000 0.000000 0.000000 -7.125000 0.000000 0.000000 -62.716556 58.267468 26.829340 0.000000 0.000000 0.000000 -32.834742 -58.799496 51.336209 -138.592534 -48.871021 -100.503522 -16.081498 -37.310300 33.065559 0.000000 0.000000 0.000000 7.125000 0.000000 0.000000 20.036218 63.000008 -8.965376
7.948995 13.430057 -4.486505 -199.800636 -126.389711 555.987658 0.000000 0.000000 0.000000 13.558900 21.272256 -61.537249 14.977592 19.384111 75.169104 -0.333689 -16.174862 -7.531666 0.009647 0.618379 1.699364 0.000000 0.000000 0.000000 9.631806 -19.164578 -30.151939 -15.559368 -19.520426 76.915977 -3.868729 -2.195111 -38.072696 -0.521003 -4.624747 12.841455 5.434337 6.052406 18.048562 1.552498 9.507298 -2.720895 -3.961035 4.097216 -12.533408 5.565548 13.726933 -3.516658 -6.665133 18.770411 9.875424 -1.769871 9.124423 4.694703 0.000000 0.000000 0.000000 18.869584 -10.276655 -26.252871 35.914467 -45.441954 15.465533 41.546164 12.370314 -26.261985 0.000000 0.000000 0.000000 -7.125000 0.000000 0.000000 14.915897 62.765210 -6.518170 0.000000 0.000000 0.000000 -77.367621 -16.892674 -39.730538 -148.802616 -41.894443 -107.797339 -27.830570 -47.534519 32.939586 0.000000 0.000000 0.000000 7.125000 0.000000 0.000000 5.892781 66.121284 -2.994001
7.882123 13.084844 -4.496823 -197.311962 -125.922669 555.859840 0.000000 0.000000 0.000000 10.317129 27.234150 -67.787085 16.069222 19.625359 78.437859 -1.204730 -22.272717 -4.238352 0.369796 3.903896 10.806732 0.000000 0.000000 0.000000 7.827323 -18.023837 -33.992961 -17.331413 -19.828239 82.176082 -4.294342 -2.312862 -40.125681 -1.086912 -6.625392 18.610361 2.284285 3.684393 17.284127 1.631632 5.648504 -3.196710 -1.068748 2.518796 -13.263520 5.209411 12.461254 -3.600957 -2.672515 16.673434 11.721864 -0.680845 8.258156 4.774646 0.000000 0.000000 0.000000 22.530601 -10.996043 -14.118314 24.075976 -35.243909 7.750554 39.437143 16.490278 -26.391857 0.000000 0.000000 0.000000 -7.125000 0.000000 0.000000 11.979406 62.306843 -5.082769 0.000000 0.000000 0.000000 -79.624237 9.211247 -54.885706 -132.654950 -51.864711 -95.929864 -30.722266 -53.950936 35.504414 0.000000 0.000000 0.000000 7.125000 0.000000 0.000000 3.903492 69.632894 -2.299919
7.935822 12.819806 -4.465332 -196.347995 -123.293331 555.198065 0.000000 0.000000 0.000000 9.308269 31.150177 -69.394066 17.044866 19.789312 81.330593 -1.451404 -24.190004 -4.382292 0.527120 4.652017 12.918760 0.000000 0.000000 0.000000 5.354222 -16.692711 -36.074967 -18.606132 -19.953298 85.921530 -4.556110 -1.122144 -40.943734 -0.923037 -6.120680 17.135058 1.130576 2.845929 17.722143 1.761811 4.327653 -3.926791 0.054556 1.984225 -14.511555 4.763015 13.223766 -3.655857 -1.059106 17.557096 12.593658 -0.062047 8.752578 4.904156 0.000000 0.000000 0.000000 22.848423 -10.273006 -5.035234 20.083311 -30.742454 5.573935 38.381956 21.311677 -24.080453 0.000000 0.000000 0.000000 -7.125000 0.000000 0.000000 10.701263 59.352697 -3.777972 0.000000 0.000000 0.000000 -78.081009 11.114965 -54.933707 -127.407624 -53.988632 -91.741866 -31.139611 -52.203313 35.385293 0.000000 0.000000 0.000000 7.125000 0.000000 0.000000 3.199735 69.642839 -1.887301
